<?xml version="1.0" encoding="UTF-8"?>
<svg width="300px" height="295px" xmlns="http://www.w3.org/2000/svg" viewBox="0 0 64 63.68">
  <title>Strawdog icon</title>
  <defs>
    <style>.cls-1{fill:#b69451}</style>
  </defs>
  <circle cx="32.28" cy="32" r="31.68"></circle>
  <g id="imageGroup">
    <path class="cls-1" d="M16.81 51.41a.2.2 0 0 0-.13-.26.21.21 0 0 0-.26.13L14 58.49c.67.45 1.34.91 2.05 1.31a4.57 4.57 0 0 1 2.82-1 4.69 4.69 0 0 1 .84.08h.24v-4.27l2.43 1 .13-.31a27.67 27.67 0 0 0 .41 5.7 6.3 6.3 0 0 0-2.72-.65 5.72 5.72 0 0 0-2.28.43l.54.22a5.89 5.89 0 0 1 4.63.56l.4.25-.09-.46c0-.1-2-9.54 1.86-12.68 1.77-1.44 4.55-1.34 8.24.31a.19.19 0 0 0 .26-.11.19.19 0 0 0-.1-.26c-3.84-1.71-6.75-1.8-8.66-.25s-2.44 4.26-2.54 6.85l-6.09-2.57zM20.07 18.12h-1l.48 2.3c.76-.42.52-2.3.52-2.3z" transform="translate(.28)"></path>
    <path class="cls-1" d="M10 55.45c.13.11.27.2.39.32.36-4.65.49-11.29-1.39-13.84.32-1.08 3-10.6-.3-18.84.47-.56 1.84-2.82.89-9.77L11.4 12s.94 3.39.94 4h.36s.75-.57.45-5.24a4.81 4.81 0 0 1 3.69-3h.2-.2l1.52 7.67v.1l.08.05c2.3 1.16 3 1.52 3.77 4.65.23.92.45 2.1.74 3.61v.07L23 24l3.35 2.85L23.88 28l-.22.11.16.2c.05.07 5.58 7.07 6.09 8.61v.07L30 37c6 4.09 12.21 11.72 12.33 18.38a16.06 16.06 0 0 1-.94 7.07c.37-.12.75-.22 1.12-.35a8.39 8.39 0 0 1 4.81-2.16l.55-.34a.18.18 0 0 0-.18-.13A8.94 8.94 0 0 0 42 61.93a12.92 12.92 0 0 0 .6-2.55 10.42 10.42 0 0 1 6.7-2.52 11.59 11.59 0 0 1 2.22.22A32 32 0 1 0 8.9 54.41a47.92 47.92 0 0 0 .44-9.84s-.13-.91-.23-1.66c1.29 2.78 1.19 8.39.89 12.54zM26.1 24l-1.51.76-1.24-1.06c-.22-1.18-.34-1.9-.52-2.71z" transform="translate(.28)"></path>
  </g>
</svg>
